<?xml version="1.0" encoding="UTF-8"?>
<svg width="136px" height="130px" viewBox="0 0 136 130" version="1.1" xmlns="http://www.w3.org/2000/svg" xmlns:xlink="http://www.w3.org/1999/xlink">
    <!-- Generator: Sketch 46.2 (44496) - http://www.bohemiancoding.com/sketch -->
    <title>quote</title>
    <desc>Created with Sketch.</desc>
    <defs/>
    <g id="Page-1" stroke="none" stroke-width="1" fill="none" fill-rule="evenodd">
        <g id="Approach-Process" transform="translate(-1017.000000, -729.000000)" fill="#F0F0F0">
            <g id="quote" transform="translate(1085.000000, 793.777778) scale(-1, -1) translate(-1085.000000, -793.777778) translate(1017.000000, 728.777778)">
                <path d="M31.5244444,60.0035556 L31.5244444,70.9377778 L58.8435556,70.9377778 L58.8435556,129.777778 L0,129.777778 L0,60.0035556 C0,37.7982222 6.38933333,21.3093333 18.9893333,10.9928889 C27.7084444,3.85777778 38.7431111,0.24 51.7848889,0.24 L51.7848889,31.7608889 C44.7048889,31.7608889 31.5244444,31.7608889 31.5244444,60.0035556 Z M128.788444,31.7608889 L128.788444,0.24 C115.743111,0.24 104.708444,3.85777778 95.9928889,10.9928889 C83.392,21.3093333 77.0035556,37.7982222 77.0035556,60.0035556 L77.0035556,129.777778 L135.843556,129.777778 L135.843556,70.9377778 L108.524444,70.9377778 L108.524444,60.0035556 C108.524444,31.7608889 121.704889,31.7608889 128.788444,31.7608889 Z" id="Fill-1"/>
            </g>
        </g>
    </g>
</svg>